<?xml version="1.0" encoding="iso-8859-1"?>
<!-- Generator: Adobe Illustrator 19.0.0, SVG Export Plug-In . SVG Version: 6.00 Build 0)  -->
<svg version="1.1" id="Layer_1" xmlns="http://www.w3.org/2000/svg" xmlns:xlink="http://www.w3.org/1999/xlink" x="0px" y="0px"
	 viewBox="0 0 512 512" style="enable-background:new 0 0 512 512;" xml:space="preserve">
<g>
	<path style="fill:#0070fb;" d="M414.351,240.165c26.075,0,47.505,21.325,47.505,47.505c0,14.991-7.179,28.186-18.052,36.948
		c10.873,8.762,18.052,21.958,18.052,36.948c0,26.075-21.43,47.505-47.505,47.505h-10.557h-47.505V240.165h47.505H414.351z"/>
	<path style="fill:#0070fb;" d="M308.784,292.948v63.34c0,29.031-23.753,52.784-52.784,52.784
		c-29.031,0-52.783-23.753-52.783-52.784v-63.34c0-29.031,23.753-52.783,52.783-52.783c14.568,0,27.659,5.912,37.265,15.518
		C302.872,265.29,308.784,278.38,308.784,292.948z"/>
	<path style="fill:#0070fb;" d="M7.918,461.856V155.711h496.165v306.144v42.227H7.918V461.856z M461.856,287.67
		c0-26.181-21.43-47.505-47.505-47.505h-10.557h-47.505v168.907h47.505h10.557c26.075,0,47.505-21.43,47.505-47.505
		c0-14.991-7.179-28.186-18.052-36.948C454.677,315.857,461.856,302.661,461.856,287.67z M308.784,356.289v-63.34
		c0-14.568-5.912-27.659-15.518-37.265c-9.607-9.607-22.697-15.518-37.265-15.518c-29.031,0-52.784,23.753-52.784,52.783v63.34
		c0,29.031,23.753,52.784,52.784,52.784S308.784,385.32,308.784,356.289z"/>
</g>
<path style="fill:#0070fb;" d="M278.38,61.968c-5.701,5.701-13.618,9.29-22.38,9.29c-8.762,0-16.68-3.589-22.38-9.29
	c-5.701-5.701-9.29-13.618-9.29-22.38c0-17.524,14.146-31.67,31.67-31.67s31.67,14.146,31.67,31.67
	C287.67,48.35,284.081,56.267,278.38,61.968z"/>
<g>
	<rect x="7.918" y="155.711" style="fill:#0070fb;" width="496.165" height="36.948"/>
	<rect x="7.918" y="461.856" style="fill:#0070fb;" width="496.165" height="42.227"/>
</g>
<g>
	<path style="fill:#FFFFFF;" d="M256,416.99c-33.471,0-60.701-27.23-60.701-60.701v-63.34c0-33.471,27.23-60.701,60.701-60.701
		c16.139,0,31.362,6.335,42.863,17.838c11.503,11.502,17.838,26.723,17.838,42.863v63.34C316.701,389.76,289.471,416.99,256,416.99z
		 M256,248.082c-24.74,0-44.866,20.126-44.866,44.866v63.34c0,24.74,20.126,44.866,44.866,44.866s44.866-20.126,44.866-44.866
		v-63.34c0-11.909-4.687-23.155-13.199-31.666C279.155,252.77,267.909,248.082,256,248.082z"/>
	<path style="fill:#FFFFFF;" d="M102.928,416.99c-16.029,0-31.218-6.151-42.769-17.321c-11.563-11.183-17.932-26.064-17.932-41.902
		h15.835c0,11.508,4.654,22.346,13.105,30.518c8.582,8.299,19.861,12.87,31.761,12.87c24.74,0,44.866-19.464,44.866-43.388V229.608
		h15.835v128.158C163.629,390.422,136.399,416.99,102.928,416.99z"/>
	<path style="fill:#FFFFFF;" d="M414.351,416.99h-65.979V232.247h65.979c30.56,0,55.423,24.862,55.423,55.423
		c0,13.693-5.181,26.758-14.451,36.948c9.269,10.19,14.451,23.255,14.451,36.948C469.773,392.128,444.91,416.99,414.351,416.99z
		 M364.206,401.155h50.144c21.829,0,39.588-17.758,39.588-39.588c0-11.83-5.504-23.049-15.102-30.783l-7.65-6.165l7.65-6.165
		c9.598-7.734,15.102-18.954,15.102-30.783c0-21.829-17.758-39.588-39.588-39.588h-50.144V401.155z"/>
</g>
<path d="M375.404,147.794L289.02,61.41c4.271-6.424,6.567-13.951,6.567-21.823C295.588,17.758,277.829,0,256,0
	c-21.829,0-39.588,17.758-39.588,39.588c0,7.873,2.296,15.399,6.567,21.824l-86.382,86.382H0V512h512V147.794H375.404z M256,15.835
	c13.097,0,23.753,10.655,23.753,23.753c0,6.326-2.476,12.286-6.971,16.781c-4.495,4.496-10.455,6.972-16.782,6.972
	c-6.327,0-12.286-2.476-16.782-6.971c-4.495-4.496-6.971-10.455-6.971-16.782C232.247,26.49,242.902,15.835,256,15.835z
	 M234.176,72.608c6.425,4.271,13.951,6.567,21.824,6.567c7.872,0,15.399-2.296,21.823-6.567l75.186,75.186H158.99L234.176,72.608z
	 M15.835,496.165v-26.392h372.124v-15.835H15.835V200.577h97.649v-15.835H15.835v-21.113h480.33v21.113h-97.65v15.835h97.65v253.361
	h-76.536v15.835h76.536v26.392H15.835z"/>
<rect x="208.495" y="184.742" width="95.01" height="15.835"/>
<g>
	<rect x="324.619" y="184.742" style="fill:#FFFFFF;" width="21.113" height="15.835"/>
	<rect x="166.268" y="184.742" style="fill:#FFFFFF;" width="21.113" height="15.835"/>
</g>
<g>
</g>
<g>
</g>
<g>
</g>
<g>
</g>
<g>
</g>
<g>
</g>
<g>
</g>
<g>
</g>
<g>
</g>
<g>
</g>
<g>
</g>
<g>
</g>
<g>
</g>
<g>
</g>
<g>
</g>
</svg>
